<svg width="24" height="24" viewBox="0 0 24 24" fill="none" xmlns="http://www.w3.org/2000/svg">
<path d="M8.5 7C7.94772 7 7.5 7.44772 7.5 8C7.5 8.55228 7.94772 9 8.5 9V7ZM8.5 15C7.94772 15 7.5 15.4477 7.5 16C7.5 16.5523 7.94772 17 8.5 17V15ZM11 6.5C11 5.94772 10.5523 5.5 10 5.5C9.44772 5.5 9 5.94772 9 6.5H11ZM12 8C12 8.55228 12.4477 9 13 9C13.5523 9 14 8.55228 14 8H12ZM14 6.5C14 5.94772 13.5523 5.5 13 5.5C12.4477 5.5 12 5.94772 12 6.5H14ZM9 17.5C9 18.0523 9.44772 18.5 10 18.5C10.5523 18.5 11 18.0523 11 17.5H9ZM12 17.5C12 18.0523 12.4477 18.5 13 18.5C13.5523 18.5 14 18.0523 14 17.5H12ZM14 16C14 15.4477 13.5523 15 13 15C12.4477 15 12 15.4477 12 16H14ZM10 9H14V7H10V9ZM14 11H10V13H14V11ZM11 12V8H9V12H11ZM15 10C15 10.5523 14.5523 11 14 11V13C15.6569 13 17 11.6569 17 10H15ZM14 9C14.5523 9 15 9.44772 15 10H17C17 8.34315 15.6569 7 14 7V9ZM14 15H10V17H14V15ZM11 16V12H9V16H11ZM15 14C15 14.5523 14.5523 15 14 15V17C15.6569 17 17 15.6569 17 14H15ZM14 13C14.5523 13 15 13.4477 15 14H17C17 12.3431 15.6569 11 14 11V13ZM20 12C20 16.4183 16.4183 20 12 20V22C17.5228 22 22 17.5228 22 12H20ZM12 20C7.58172 20 4 16.4183 4 12H2C2 17.5228 6.47715 22 12 22V20ZM4 12C4 7.58172 7.58172 4 12 4V2C6.47715 2 2 6.47715 2 12H4ZM12 4C16.4183 4 20 7.58172 20 12H22C22 6.47715 17.5228 2 12 2V4ZM10 7H8.5V9H10V7ZM10 15H8.5V17H10V15ZM11 8V6.5H9V8H11ZM14 8V6.5H12V8H14ZM11 17.5V16H9V17.5H11ZM14 17.5V16H12V17.5H14Z" fill="#131A29"/>
</svg>
